<?xml version="1.0" encoding="UTF-8" standalone="no"?>
<!DOCTYPE svg  PUBLIC '-//W3C//DTD SVG 20010904//EN'  'http://www.w3.org/TR/2001/REC-SVG-20010904/DTD/svg10.dtd'>
<svg xmlns="http://www.w3.org/2000/svg" height="1286pt" width="3470pt" version="1.0" preserveAspectRatio="xMidYMid meet" viewBox="0 0 3470.000000 1286.000000">
 <metadata>Created by potrace 1.12, written by Peter Selinger 2001-2015</metadata>
 <g transform="translate(0 1286) scale(0.1 -0.1)">
  <path fill="#fff" d="m6435 10839c-471-35-962-148-1410-323-167-66-534-248-695-346-347-210-658-457-935-741-141-145-255-271-255-282 0-4 41-8 92-9l92-3 772-1929 771-1928 773 1931 772 1931h730 730l-6-22c-3-13-550-1375-1214-3028l-1209-3005-575-3-575-2-958 2382c-526 1311-959 2385-961 2387-6 6-36-72-94-249-490-1475-221-3109 718-4350 365-482 813-885 1332-1200 161-98 528-280 695-346 282-110 615-205 905-258 872-158 1770-69 2605 258 167 66 534 248 695 346 781 474 1397 1144 1799 1958 796 1613 615 3532-467 4962-365 482-813 885-1332 1200-161 98-528 280-695 346-458 179-936 288-1430 324-160 11-508 11-670-1z"/>
  <path fill="#fff" d="m13420 6090v-3030h1970 1970v600 600h-1295-1295v2430 2430h-675-675v-3030z"/>
  <path fill="#fff" d="m20630 6090v-3030h675 675l2 1895 3 1895 1440-1895 1440-1895h678 677v3030 3030h-675-675l-2-1950-3-1950-1485 1950-1485 1949-632 1h-633v-3030z"/>
  <path fill="#fff" d="m29171 9098c7-13 479-840 1050-1839l1039-1816v-1192-1191h675 675v1194 1194l1045 1826c575 1005 1045 1831 1045 1836 0 6-264 10-727 10h-728l-655-1129c-377-649-658-1124-662-1118-4 7-299 514-655 1127l-649 1115-732 3-733 2 12-22z"/>
 </g>
</svg>